<?xml version="1.0" standalone="no"?>
<!DOCTYPE svg PUBLIC "-//W3C//DTD SVG 20010904//EN"
 "http://www.w3.org/TR/2001/REC-SVG-20010904/DTD/svg10.dtd">
<svg version="1.0" xmlns="http://www.w3.org/2000/svg"
 width="512.000000pt" height="512.000000pt" viewBox="0 0 512.000000 512.000000"
 preserveAspectRatio="xMidYMid meet">
<metadata>
Created by potrace 1.11, written by Peter Selinger 2001-2013
</metadata>
<g transform="translate(0.000000,512.000000) scale(0.100000,-0.100000)"
fill="#000000" stroke="none">
<path d="M549 4926 c-129 -29 -263 -138 -320 -260 -37 -79 -40 -92 -44 -191
-4 -96 13 -166 60 -251 32 -57 143 -174 166 -174 6 0 8 -66 7 -172 l-3 -173
-145 -1 c-172 0 -206 -11 -246 -79 l-24 -42 2 -750 3 -749 25 -37 c42 -61 74
-71 242 -71 l148 -1 0 -721 0 -721 -77 -5 c-165 -10 -252 -103 -253 -270 l0
-78 570 0 570 0 0 71 c0 91 -15 139 -58 189 -49 59 -102 82 -193 88 l-76 4 1
722 1 721 1657 0 1657 0 0 -722 0 -723 -57 -1 c-31 0 -67 -2 -80 -5 -73 -13
-159 -91 -180 -163 -7 -21 -12 -70 -12 -110 l0 -71 570 0 570 0 0 78 c-1 117
-44 198 -132 243 -45 23 -66 27 -140 28 l-57 1 2 722 2 723 145 0 c173 0 209
13 247 85 l23 43 0 741 c0 738 0 741 -21 776 -45 73 -73 83 -249 84 l-145 1
-2 171 -3 171 26 14 c39 20 131 124 158 178 77 151 67 349 -23 483 -142 210
-407 276 -632 156 -229 -121 -314 -413 -188 -648 32 -60 104 -139 151 -167
l26 -16 -1 -171 -2 -171 -1655 0 -1655 0 -2 171 -1 171 26 16 c15 8 48 37 74
63 181 183 180 489 -1 672 -47 46 -124 95 -186 116 -65 23 -195 29 -266 12z"/>
</g>
</svg>
